<svg xmlns="http://www.w3.org/2000/svg" width="48" height="48" viewBox="0 0 48 48"><g transform="translate(0 -1004.362)"><circle cx="24" cy="1028.362" r="24" fill="#50b748" fill-rule="evenodd"/><g transform="translate(65.286 -312.777)"><rect width="4" height="14" x="1351.139" y="30.286" fill="#f05542" color="#000" overflow="visible" style="isolation:auto;mix-blend-mode:normal" transform="rotate(90)"/><path fill="#e9eded" d="M-44.285804 1351.139l0 4-4-2zM-29.285701 1351.139l1.5 0c.831 0 1.5.669 1.5 1.5l0 .9999c0 .8311-.669 1.5001-1.5 1.5001l-1.5 0z" color="#000" overflow="visible" style="isolation:auto;mix-blend-mode:normal"/><path fill="none" stroke="#34485c" d="m -44.285804,1353.139 14.999999,0"/><path fill="#34485c" style="isolation:auto;mix-blend-mode:normal" d="m -47.285804,1352.639 -1,0.5 1,0.5 0,-1 z" color="#000" overflow="visible"/><rect style="isolation:auto;mix-blend-mode:normal" width="4" height="1" x="1351.139" y="29.286" fill="#34485c" color="#000" overflow="visible" transform="rotate(90)"/><path fill="#e9eded" style="isolation:auto;mix-blend-mode:normal" d="m -54.285701,1328.139 0,19.018 3.99981,0 0,4.982 4.00019,-4.982 8,0 0,-11.7426 0,-1 0,-2.2754 -4,-4 z" color="#000" overflow="visible"/><path fill="none" stroke="#576d7e" d="M-52.285701 1331.639l7 0M-52.285701 1334.639l12 0M-52.285701 1337.639l12 0M-52.285701 1340.639l12 0M-52.285701 1343.639l6 0"/><path fill="#34485c" fill-rule="evenodd" d="m -42.285701,1328.139 0,4 4,0"/></g></g></svg>