<?xml version="1.0" encoding="UTF-8"?><svg xmlns="http://www.w3.org/2000/svg" xmlns:xlink="http://www.w3.org/1999/xlink" version="1.1" id="Layer_1" x="0px" y="0px" viewBox="0 0 512 512" xml:space="preserve"><style type="text/css">.st0{fill:#51647F;} .st1{fill:#FFFFFF;}</style><circle id="XMLID_216_" class="st0" cx="256" cy="256" r="256" fill="#51647F"/><path id="XMLID_52_" class="st1" fill="#FFF" d="M192.2 266l-2.6 7.4h5.2l-2.5-7.4z"/><path id="XMLID_51_" class="st1" d="M206.9 110.7v53.7c0 3.3-1.1 6.5-3.1 9.1-5.9 7.5-17.3 7.5-23.2 0-2-2.6-3.1-5.8-3.1-9.1v-53.7c0-8.1 6.6-14.7 14.7-14.7s14.7 6.6 14.7 14.7z" fill="#FFF"/><path id="XMLID_50_" class="st1" d="M192.2 186.4c-5.5 0-10.7-2-14.7-5.7v20.4c0 3.4 1.2 6.6 3.3 9.3 5.9 7.3 17 7.3 22.9 0 2.1-2.6 3.3-5.9 3.3-9.3v-20.4c-4.1 3.7-9.3 5.7-14.8 5.7z" fill="#FFF"/><path id="XMLID_49_" class="st1" d="M182.3 175.4c2.7 2.4 6.2 3.8 9.9 3.8s7.2-1.3 9.9-3.8l4.9-4.4v-24c0-8.1-6.6-14.7-14.7-14.7s-14.7 6.6-14.7 14.7v24l4.7 4.4z" fill="#FFF"/><path id="XMLID_48_" class="st1" d="M192.2 223.1c-5.5 0-10.7-2-14.7-5.7v20c0 3.4 1.2 6.6 3.3 9.3 5.9 7.3 17 7.3 22.9 0 2.1-2.6 3.3-5.9 3.3-9.3v-20c-4.1 3.7-9.3 5.7-14.8 5.7z" fill="#FFF"/><path id="XMLID_47_" class="st1" d="M192.2 215.9c3.7 0 7.2-1.3 9.9-3.8l4.9-4.4v-24.5c0-.8-.1-1.6-.2-2.3-4 3.5-9.1 5.5-14.5 5.5s-10.5-1.9-14.5-5.5c-.1.8-.2 1.5-.2 2.3v24.5l4.9 4.4c2.5 2.4 6 3.8 9.7 3.8z" fill="#FFF"/><path class="st1" d="M192.2 259.4c-5.5 0-10.7-2-14.7-5.7v20c0 3.4 1.2 6.6 3.3 9.3 5.9 7.3 17 7.3 22.9 0 2.1-2.6 3.3-5.9 3.3-9.3v-20c-4.1 3.6-9.3 5.7-14.8 5.7zm4.8 20.4l-1.5-4.4H189l-1.5 4.4h-2.4l6.2-17.2h2l6.1 17.2H197z" fill="#FFF"/><g><path id="XMLID_36_" class="st1" d="M249.5 153.3V207c0 3.3-1.1 6.5-3.1 9.1-5.9 7.5-17.3 7.5-23.2 0-2-2.6-3.1-5.8-3.1-9.1v-53.7c0-8.1 6.6-14.7 14.7-14.7 8.1-.1 14.7 6.5 14.7 14.7z" fill="#FFF"/><path id="XMLID_31_" class="st1" d="M234.7 228.9c-5.5 0-10.7-2-14.7-5.7v20.4c0 3.4 1.2 6.6 3.3 9.3 5.9 7.3 17 7.3 22.9 0 2.1-2.6 3.3-5.9 3.3-9.3v-20.4c-4.1 3.7-9.2 5.7-14.8 5.7z" fill="#FFF"/><path id="XMLID_26_" class="st1" d="M224.9 217.9c2.7 2.4 6.2 3.8 9.9 3.8s7.2-1.3 9.9-3.8l4.9-4.4v-24c0-8.1-6.6-14.7-14.7-14.7s-14.7 6.6-14.7 14.7v24l4.7 4.4z" fill="#FFF"/><path id="XMLID_21_" class="st1" d="M234.7 265.7c-5.5 0-10.7-2-14.7-5.7v20c0 3.4 1.2 6.6 3.3 9.3 5.9 7.3 17 7.3 22.9 0 2.1-2.6 3.3-5.9 3.3-9.3v-20c-4.1 3.6-9.3 5.7-14.8 5.7z" fill="#FFF"/><path id="XMLID_20_" class="st1" d="M234.7 258.4c3.7 0 7.2-1.3 9.9-3.8l4.9-4.4v-24.5c0-.8-.1-1.6-.2-2.3-4 3.5-9.1 5.5-14.5 5.5s-10.5-1.9-14.5-5.5c-.1.8-.2 1.5-.2 2.3v24.5l4.9 4.4c2.6 2.5 6.1 3.8 9.7 3.8z" fill="#FFF"/></g><g><path id="XMLID_19_" class="st1" d="M292 195.8v53.7c0 3.3-1.1 6.5-3.1 9.1-5.9 7.5-17.3 7.5-23.2 0-2-2.6-3.1-5.8-3.1-9.1v-53.7c0-8.1 6.6-14.7 14.7-14.7s14.7 6.6 14.7 14.7z" fill="#FFF"/><path id="XMLID_18_" class="st1" d="M277.3 271.5c-5.5 0-10.7-2-14.7-5.7v20.4c0 3.4 1.2 6.6 3.3 9.3 5.9 7.3 17 7.3 22.9 0 2.1-2.6 3.3-5.9 3.3-9.3v-20.4c-4.1 3.6-9.3 5.7-14.8 5.7z" fill="#FFF"/><path id="XMLID_17_" class="st1" d="M267.4 260.4c2.7 2.4 6.2 3.8 9.9 3.8s7.2-1.3 9.9-3.8l4.9-4.4v-24c0-8.1-6.6-14.7-14.7-14.7s-14.7 6.6-14.7 14.7v24l4.7 4.4z" fill="#FFF"/><path id="XMLID_16_" class="st1" d="M277.3 308.2c-5.5 0-10.7-2-14.7-5.7v20c0 3.4 1.2 6.6 3.3 9.3 5.9 7.3 17 7.3 22.9 0 2.1-2.6 3.3-5.9 3.3-9.3v-20c-4.1 3.7-9.3 5.7-14.8 5.7z" fill="#FFF"/><path id="XMLID_15_" class="st1" d="M277.3 301c3.7 0 7.2-1.3 9.9-3.8l4.9-4.4v-24.5c0-.8-.1-1.6-.2-2.3-4 3.5-9.1 5.5-14.5 5.5s-10.5-1.9-14.5-5.5c-.1.8-.2 1.5-.2 2.3v24.5l4.9 4.4c2.5 2.4 6 3.8 9.7 3.8z" fill="#FFF"/></g><g><path id="XMLID_14_" class="st1" d="M334.5 238.3V292c0 3.3-1.1 6.5-3.1 9.1-5.9 7.5-17.3 7.5-23.2 0-2-2.6-3.1-5.8-3.1-9.1v-53.7c0-8.1 6.6-14.7 14.7-14.7s14.7 6.6 14.7 14.7z" fill="#FFF"/><path id="XMLID_13_" class="st1" d="M319.8 314c-5.5 0-10.7-2-14.7-5.7v20.4c0 3.4 1.2 6.6 3.3 9.3 5.9 7.3 17 7.3 22.9 0 2.1-2.6 3.3-5.9 3.3-9.3v-20.4c-4.1 3.7-9.3 5.7-14.8 5.7z" fill="#FFF"/><path id="XMLID_12_" class="st1" d="M310 303c2.7 2.4 6.2 3.8 9.9 3.8s7.2-1.3 9.9-3.8l4.9-4.4v-24c0-8.1-6.6-14.7-14.7-14.7s-14.7 6.6-14.7 14.7v24l4.7 4.4z" fill="#FFF"/><path id="XMLID_11_" class="st1" d="M319.8 350.7c-5.5 0-10.7-2-14.7-5.7v20c0 3.4 1.2 6.6 3.3 9.3 5.9 7.3 17 7.3 22.9 0 2.1-2.6 3.3-5.9 3.3-9.3v-20c-4.1 3.7-9.3 5.7-14.8 5.7z" fill="#FFF"/><path id="XMLID_10_" class="st1" d="M319.8 343.5c3.7 0 7.2-1.3 9.9-3.8l4.9-4.4v-24.5c0-.8-.1-1.6-.2-2.3-4 3.5-9.1 5.5-14.5 5.5s-10.5-1.9-14.5-5.5c-.1.8-.2 1.5-.2 2.3v24.5l4.9 4.4c2.5 2.4 6 3.8 9.7 3.8z" fill="#FFF"/></g><g><path id="XMLID_9_" class="st1" d="M236.6 314c.5-.4.8-1.1.8-1.9 0-.9-.3-1.5-.8-2-.5-.4-1.3-.6-2.4-.6h-3.1v5.1h3.5c.8.1 1.5-.2 2-.6z" fill="#FFF"/><path id="XMLID_8_" class="st1" d="M235.3 316.4H231.1v5.8h4.2c1 0 1.8-.2 2.3-.7.5-.5.8-1.2.8-2.1 0-.9-.3-1.6-.8-2.2-.6-.5-1.4-.8-2.3-.8z" fill="#FFF"/><path class="st1" d="M234.7 301.9c-5.5 0-10.7-2-14.7-5.7v20c0 3.4 1.2 6.6 3.3 9.3 5.9 7.3 17 7.3 22.9 0 2.1-2.6 3.3-5.9 3.3-9.3v-20c-4.1 3.7-9.3 5.7-14.8 5.7zm4.4 20.8c-1 .8-2.3 1.2-3.9 1.2h-6.4v-16.1h5.2c1.7 0 3 .4 3.9 1.1 1 .7 1.4 1.8 1.4 3.3 0 .7-.2 1.3-.6 1.9-.4.5-1 1-1.7 1.3 1.1.1 1.9.6 2.5 1.4.6.8.9 1.7.9 2.7.2 1.3-.3 2.5-1.3 3.2z" fill="#FFF"/></g><path class="st1" d="M277.3 344.4c-5.5 0-10.7-2-14.7-5.7v20c0 3.4 1.2 6.6 3.3 9.3 5.9 7.3 17 7.3 22.9 0 2.1-2.6 3.3-5.9 3.3-9.3v-20c-4.1 3.7-9.3 5.7-14.8 5.7zm-2.9 18.9c.7 1 1.7 1.5 3 1.5 1.2 0 2.2-.3 2.9-1 .7-.7 1-1.6 1-2.8h2.2v.1c0 1.6-.5 2.9-1.6 3.9-1.1 1.1-2.6 1.6-4.5 1.6s-3.4-.7-4.6-2c-1.2-1.3-1.8-3-1.8-5.1v-3c0-2 .6-3.7 1.8-5.1 1.2-1.3 2.7-2 4.6-2 1.9 0 3.4.5 4.5 1.5s1.7 2.3 1.6 4v.1h-2.2c0-1.2-.3-2.1-1-2.8-.7-.7-1.7-1-2.9-1-1.3 0-2.3.5-3 1.5-.7 1-1.1 2.3-1.1 3.8v3c0 1.5.3 2.8 1.1 3.8z" fill="#FFF"/><g><path id="XMLID_3_" class="st1" d="M319.8 394.6h-3.1v13.6h3.1c1.6 0 2.9-.5 3.8-1.6.9-1.1 1.4-2.4 1.4-4v-2.4c0-1.6-.5-3-1.4-4-1-1.1-2.2-1.6-3.8-1.6z" fill="#FFF"/><path class="st1" d="M319.8 387c-5.5 0-10.7-2-14.7-5.7v20c0 3.4 1.2 6.6 3.3 9.3 5.9 7.3 17 7.3 22.9 0 2.1-2.6 3.3-5.9 3.3-9.3v-20c-4.1 3.7-9.3 5.7-14.8 5.7zm7.5 15.6c0 2.2-.7 4-2.1 5.4-1.4 1.4-3.2 2.1-5.4 2.1h-5.4v-17.3h5.4c2.3 0 4.1.7 5.4 2.1 1.4 1.4 2.1 3.2 2.1 5.4v2.3z" fill="#FFF"/></g><metadata><rdf:RDF xmlns:rdf="http://www.w3.org/1999/02/22-rdf-syntax-ns#" xmlns:rdfs="http://www.w3.org/2000/01/rdf-schema#" xmlns:dc="http://purl.org/dc/elements/1.1/"><rdf:Description about="https://iconscout.com/legal#licenses" dc:publisher="Iconscout" dc:date="2017-11-12" dc:format="image/svg+xml" dc:language="en"><dc:creator><rdf:Bag><rdf:li>First Styles</rdf:li></rdf:Bag></dc:creator></rdf:Description></rdf:RDF></metadata></svg>