<svg xmlns="http://www.w3.org/2000/svg" width="48" height="48" viewBox="0 0 48 48"><g fill="#fff" transform="translate(8 -1011.362)"><circle cx="16" cy="1035.362" r="24" fill="#ef4c45"/><path fill="#df2209" style="marker:none" d="M 29.626953 47.302734 A 23.999987 23.999987 0 0 0 30.419922 47.125 A 23.999987 23.999987 0 0 0 32.697266 46.369141 A 23.999987 23.999987 0 0 0 34.886719 45.388672 A 23.999987 23.999987 0 0 0 36.966797 44.195312 A 23.999987 23.999987 0 0 0 38.917969 42.800781 A 23.999987 23.999987 0 0 0 40.720703 41.216797 A 23.999987 23.999987 0 0 0 42.355469 39.460938 A 23.999987 23.999987 0 0 0 43.808594 37.550781 A 23.999987 23.999987 0 0 0 45.0625 35.505859 A 23.999987 23.999987 0 0 0 46.105469 33.345703 A 23.999987 23.999987 0 0 0 46.927734 31.091797 A 23.999987 23.999987 0 0 0 47.302734 29.625 L 32.837891 15.162109 C 30.575835 12.900009 27.451785 11.5 24 11.5 C 17.096441 11.5 11.5 17.0964 11.5 24 C 11.5 27.4518 12.90006 30.575891 15.162109 32.837891 L 29.626953 47.302734 z " color="#000" transform="translate(-8 1011.362)"/><path style="marker:none" d="M 16,3.5 C 9.096441,3.5 3.5,9.096441 3.5,16 3.5,22.903559 9.096441,28.5 16,28.5 22.903559,28.5 28.5,22.903559 28.5,16 28.5,9.096441 22.903559,3.5 16,3.5 Z M 15.5,5.03125 15.5,6 c 4.35e-4,0.00848 -9e-4,0.022805 0,0.03125 -0.546417,0.027071 -1.0737,0.075911 -1.59375,0.1875 L 13.65625,5.25 C 14.258315,5.1186144 14.865302,5.0597875 15.5,5.03125 Z m 1,0 c 0.634698,0.028538 1.241685,0.087364 1.84375,0.21875 l -0.25,0.96875 C 17.574161,6.1072346 17.045908,6.0584017 16.5,6.03125 16.500215,6.0227883 16.500215,6.0084617 16.5,6 l 0,-0.96875 z M 12.6875,5.5 l 0.25,0.96875 c -0.516966,0.1668983 -1.023495,0.3799438 -1.5,0.625 L 10.9375,6.25 c 0.552554,-0.2866386 1.1474,-0.5592818 1.75,-0.75 z m 6.625,0 c 0.6026,0.1907182 1.197446,0.4633614 1.75,0.75 l -0.5,0.84375 c -0.476505,-0.2450562 -0.983034,-0.4581017 -1.5,-0.625 L 19.3125,5.5 Z m -9.25,1.25 0.5,0.84375 c -0.445354,0.2903389 -0.8573517,0.6445014 -1.25,1 C 9.30679,8.58775 9.287254,8.568212 9.28125,8.5625 L 8.59375,7.875 C 9.0551522,7.4536293 9.5340556,7.0885625 10.0625,6.75 Z m 11.875,0 c 0.528444,0.3385625 1.007348,0.7036293 1.46875,1.125 l -0.6875,0.6875 c -0.006,0.00571 -0.02554,0.025246 -0.03125,0.03125 -0.392648,-0.3554986 -0.804647,-0.7096612 -1.25,-1 L 21.9375,6.75 Z M 13.5,8 l 5,0 0,1 -5,0 0,-1 z m -5.625,0.59375 0.6875,0.6875 c 0.00635,0.00603 0.024587,0.025563 0.03125,0.03125 -0.3615156,0.3992964 -0.7059999,0.796181 -1,1.25 L 6.75,10.0625 C 7.0889482,9.5331409 7.4529788,9.0558682 7.875,8.59375 Z m 16.25,0 c 0.421648,0.4617097 0.786273,0.9399135 1.125,1.46875 l -0.84375,0.5 c -0.294034,-0.453705 -0.638477,-0.8508102 -1,-1.25 0.0066,-0.00504 0.02487,-0.02588 0.03125,-0.03125 L 24.125,8.59375 Z M 11,9.96875 l 10,0 0,1 -10,0 0,-1 z m -4.75,0.96875 0.84375,0.5 c -0.2448797,0.47642 -0.4269897,0.983154 -0.59375,1.5 -0.00454,-0.0014 -0.026678,0.0012 -0.03125,0 L 5.5,12.6875 c 0.1908023,-0.603215 0.4630904,-1.19692 0.75,-1.75 z m 19.5,0 c 0.286352,0.552006 0.559372,1.116794 0.75,1.71875 l -0.96875,0.28125 c -0.166752,-0.516493 -0.380229,-1.023891 -0.625,-1.5 l 0.84375,-0.5 z M 11,12 l 4.03125,0 0,1 L 12,13 l 0,2.1875 c 0.731273,-0.1611 1.407977,-0.17355 1.90625,0.09375 0.653921,0.3508 1.019733,1.0236 1.125,1.6875 0.105267,0.6638 -0.03421,1.3567 -0.375,1.9375 C 14.315455,19.48715 13.705132,19.951 12.9375,20 L 11,20 l 0,-1 1.875,0 c 0.412612,-0.0277 0.696685,-0.23655 0.90625,-0.59375 0.2104,-0.3586 0.31781,-0.85355 0.25,-1.28125 -0.06781,-0.4276 -0.257767,-0.7573 -0.59375,-0.9375 -0.335983,-0.1798 -0.889415,-0.24245 -1.75,0.09375 L 11,16.53125 11,12 Z m 6,0 4,0 0,8 -4,0 0,-7.5 0,-0.5 z m 1,1 0,6 2,0 0,-6 -2,0 z m 8.75,0.625 c 0.131734,0.603046 0.190213,1.239208 0.21875,1.875 L 26,15.5 c -0.0085,-2.15e-4 -0.02279,-2.15e-4 -0.03125,0 -0.02714,-0.545679 -0.07606,-1.074373 -0.1875,-1.59375 L 26.75,13.625 Z m -21.5,0.03125 0.96875,0.25 C 6.107315,14.425534 6.0583904,14.954321 6.03125,15.5 6.0227883,15.499785 6.0084617,15.499785 6,15.5 l -0.96875,0 C 5.0592967,14.875161 5.1224551,14.24956 5.25,13.65625 Z M 5.03125,16.5 6,16.5 c 0.00846,2.15e-4 0.022788,2.15e-4 0.03125,0 0.027152,0.545915 0.075985,1.074164 0.1875,1.59375 L 5.25,18.375 C 5.1180895,17.771641 5.0598531,17.136153 5.03125,16.5 Z m 20.9375,0 c 0.0084,8.66e-4 0.02277,-5e-4 0.03125,0 l 0.96875,0 c -0.0286,0.636153 -0.08684,1.271641 -0.21875,1.875 l -0.96875,-0.28125 c 0.111647,-0.520205 0.160421,-1.047158 0.1875,-1.59375 z m -19.5,2.5625 c 0.00458,-0.0012 0.026708,0.0014 0.03125,0 0.1668385,0.516436 0.3801572,1.023957 0.625,1.5 -0.00658,0.0031 -0.024812,-0.0034 -0.03125,0 L 6.25,21.0625 C 5.9636476,20.510493 5.6906276,19.91446 5.5,19.3125 l 0.96875,-0.25 z m 19.03125,0 c 0.0045,0.0014 0.02668,-0.0012 0.03125,0 l 0.96875,0.25 c -0.190894,0.6028 -0.463121,1.197299 -0.75,1.75 l -0.84375,-0.5 c -0.0064,-0.0034 -0.02467,0.0031 -0.03125,0 0.245191,-0.476515 0.457979,-0.983 0.625,-1.5 z M 11,21 l 10,0 0,1 -10,0 0,-1 z m -3.40625,0.4375 c 0.2906515,0.445773 0.6440857,0.857005 1,1.25 -0.00669,0.0063 -0.024921,0.02456 -0.03125,0.03125 L 7.875,23.40625 C 7.4526168,22.94397 7.0892249,22.467114 6.75,21.9375 l 0.84375,-0.5 z m 16.8125,0 0.84375,0.5 c -0.339003,0.529091 -0.70299,1.006878 -1.125,1.46875 l -0.6875,-0.6875 c -0.0063,-0.0067 -0.02456,-0.02492 -0.03125,-0.03125 0.355914,-0.392995 0.709348,-0.804227 1,-1.25 z M 13.5,23 l 5,0 0,1 -5,0 0,-1 z m -4.1875,0.40625 c 0.3989408,0.361088 0.8279,0.675043 1.28125,0.96875 -0.0047,0.007 -0.02688,0.02398 -0.03125,0.03125 l -0.5,0.84375 C 9.5343087,24.911721 9.0549879,24.546006 8.59375,24.125 l 0.6875,-0.6875 C 9.28797,23.4305 9.3062,23.41359 9.3125,23.40625 Z m 13.375,0 c 0.0063,0.0067 0.02456,0.02492 0.03125,0.03125 l 0.6875,0.6875 c -0.461238,0.421006 -0.940561,0.786717 -1.46875,1.125 l -0.5,-0.84375 c 0.445119,-0.290034 0.857522,-0.644855 1.25,-1 z m -11.25,1.5 c 0.477043,0.24533 0.982409,0.426759 1.5,0.59375 -0.0021,0.0058 0.0019,0.02535 0,0.03125 L 12.65625,26.5 C 12.054217,26.309464 11.489586,26.036279 10.9375,25.75 l 0.5,-0.84375 z m 9.125,0 0.5,0.84375 c -0.552086,0.286279 -1.116717,0.559464 -1.71875,0.75 L 19.0625,25.53125 c -0.0012,-0.0059 0.0014,-0.02541 0,-0.03125 0.516128,-0.166625 1.024196,-0.349215 1.5,-0.59375 z m -6.65625,0.875 c 0.519597,0.111517 1.047825,0.160351 1.59375,0.1875 -2.15e-4,0.0085 -2.15e-4,0.02279 0,0.03125 l 0,0.96875 C 14.865287,26.94021 14.258329,26.881387 13.65625,26.75 l 0.25,-0.96875 z m 4.1875,0 0.25,0.96875 C 17.741678,26.881291 17.134713,26.940215 16.5,26.96875 L 16.5,26 c -4.35e-4,-0.0085 9e-4,-0.02281 0,-0.03125 0.546602,-0.02708 1.073534,-0.07586 1.59375,-0.1875 z" color="#000" overflow="visible" transform="translate(0 1019.362)"/></g></svg>