<svg xmlns="http://www.w3.org/2000/svg" data-name="Layer 1" viewBox="0 0 512 512"><path fill="#00efd1" d="M211.54,322.27H119.95a83.371,83.371,0,0,1-.51-166.74h6.58C132.09,88.94,188.22,36.58,256,36.58S379.91,88.94,385.47,155.53h6.58a83.371,83.371,0,0,1,.5,166.74H211.54Z" data-name="&lt;Group&gt;"/><g data-name="&lt;Group&gt;"><path fill="#fedb41" d="M256 201.68a8 8 0 0 0-8 8V428.39a8 8 0 0 0 16-.03V209.68A8 8 0 0 0 256 201.68zM162 430.86a8.017 8.017 0 0 0 8-8.02V386h41.54a8.728 8.728 0 0 0 8.46-8.37V209.68a8 8 0 0 0-16 0V370H161.56a7.326 7.326 0 0 0-7.56 7.63v45.25A7.983 7.983 0 0 0 162 430.86zM300.46 386H342v36.88a8 8 0 0 0 16-.04V377.63a7.326 7.326 0 0 0-7.56-7.63H308V209.68a8 8 0 0 0-16 0V377.63A8.728 8.728 0 0 0 300.46 386z" data-name="&lt;Path&gt;"/></g><g data-name="&lt;Group&gt;"><path fill="#00acea" d="M256 420.36a32.53 32.53 0 1 0 23.007 9.523A32.321 32.321 0 0 0 256 420.36zM184.567 424.373a32.529 32.529 0 1 0 9.528 23 32.326 32.326 0 0 0-9.528-23zM373.446 424.373a32.527 32.527 0 0 0-46.012 0h0a32.543 32.543 0 1 0 46.013 0z" data-name="&lt;Path&gt;"/></g></svg>