<svg xmlns="http://www.w3.org/2000/svg" enable-background="new 0 0 50 50" viewBox="0 0 50 50"><path fill="#EEEAE8" d="M49,21.8739c0,3.78-3.07,6.8501-6.85,6.8501H7.85c-3.71,0-6.72-2.9399-6.84-6.61
			c0.1743-3.9055,3.8771-6.5828,7.12-5.9601c-0.079-0.4268-0.0794-0.926-0.06-1.1199c0.23,0,0.44,0.0199,0.66,0.0599
			c-0.8173-3.9509,3.1693-6.6958,6.9-5.9501c0.14-0.6099,0.35-1.1899,0.62-1.73c0.21,0.02,0.41,0.05,0.61,0.0901
			c0.16-0.7001,0.4-1.3601,0.72-1.98c0-0.01,0.0099-0.01,0.0099-0.01c3.5575-6.9089,13.8272-5.5952,15.54,1.99
			c4.7346-0.9919,8.8779,3.2503,8.13,7.59C45.0052,14.4491,49,17.535,49,21.8739z"/><path fill="#DFDFDF" d="M45.28,22.4039c0,3.49-2.83,6.3201-6.32,6.3201H7.31c-3.48,0-6.31-2.8301-6.31-6.3201
			c0-0.1,0-0.1899,0.01-0.2899c0.1743-3.9055,3.8771-6.5828,7.12-5.9601c-0.7048-3.8073,2.9581-7.9178,7.5-7.01
			c0.2951-1.2856,0.9304-2.5627,1.95-3.6199c0-0.01,0.0099-0.01,0.0099-0.01c4.1812-4.392,11.6813-2.3888,13.05,3.6299
			c4.5427-0.9081,8.2063,3.1949,7.5,7.01C41.5118,15.5303,45.28,18.3443,45.28,22.4039z"/><path fill="#F06562" d="M37.8596,24.3048c-0.3163,9.3756-2.1699,18.9411-13.1777,24.6917
			c-11.0078-5.7506-12.8615-15.316-13.1778-24.6917c3.3492,0,5.9847-2.5623,5.9847-5.6747h14.3861
			c0,3.1379,2.6697,5.6747,5.9531,5.6747H37.8596z"/><path fill="#EEEAE8" d="M24.682,47.4085l-0.248-0.1406c-9.3193-5.3154-11.0205-13.7383-11.4551-21.2764l-0.0244-0.415
			c0.1036-0.0554,4.5077-0.7222,5.6963-5.1777l0.0996-0.3711h11.8574l0.0996,0.3701c1.203,4.4852,5.6009,5.1314,5.7021,5.1855
			l-0.0244,0.415c-0.4346,7.5322-2.1367,15.9502-11.4551,21.2695L24.682,47.4085z M14.0013,26.3373
			c0.4541,7.0967,2.1562,14.9268,10.6807,19.9189c8.5244-4.9961,10.2266-12.8203,10.6807-19.9121
			c-2.6318-0.7881-4.6953-2.7773-5.5127-5.3164H19.5081C18.6956,23.5619,16.6341,25.5492,14.0013,26.3373z"/><path fill="#FBD178" d="M26.2097,32.5685l0.5342,3.6972h-4.1243l0.5342-3.7185c-0.6197-0.4487-1.0257-1.1966-1.0257-2.03
			c0-1.4102,1.1325-2.5642,2.5644-2.5642c1.4103,0,2.543,1.154,2.543,2.5642C27.2355,31.3506,26.8295,32.0985,26.2097,32.5685z"/></svg>